<?xml version="1.0" encoding="UTF-8"?>
<svg width="10px" height="13px" viewBox="0 0 10 13" version="1.1" xmlns="http://www.w3.org/2000/svg" xmlns:xlink="http://www.w3.org/1999/xlink">
    <!-- Generator: Sketch 50.2 (55047) - http://www.bohemiancoding.com/sketch -->
    <title>Shape</title>
    <desc>Created with Sketch.</desc>
    <defs></defs>
    <g id="Page-2" stroke="none" stroke-width="1" fill="none" fill-rule="evenodd">
        <g id="S0_VD_20" transform="translate(-549.000000, -135.000000)" fill="#F5A623" fill-rule="nonzero">
            <g id="Group-19" transform="translate(534.000000, 78.000000)">
                <g id="Group-29">
                    <g id="Group-14">
                        <g id="Group-27">
                            <g id="Group-21">
                                <g id="Group-26" transform="translate(15.000000, 19.826087)">
                                    <g id="Group-25" transform="translate(0.000000, 34.173913)">
                                        <g id="Group-7" transform="translate(0.000000, -0.000000)">
                                            <g id="noun_1288474_cc" transform="translate(0.000000, 3.130435)">
                                                <g id="Group">
                                                    <g id="Shape">
                                                        <path d="M5.96912623,6.38496065 C5.96912623,6.16193989 6.07493157,5.83919586 6.20881674,5.65957352 L9.83067259,0.800437724 C10.1601781,0.358368175 9.99508075,0 9.45446272,0 L0.545455423,0 C0.00817489198,0 -0.161849243,0.35623598 0.16924555,0.800437724 L3.79110141,5.65957352 C3.92347883,5.83717301 4.03079192,6.15870113 4.03079192,6.38496065 L4.03079192,11.1262574 C4.03079192,11.6837342 4.46097114,12.1356583 4.99995907,12.1356583 C5.53521532,12.1356583 5.96912623,11.6831023 5.96912623,11.1262574 L5.96912623,6.38496065 Z"></path>
                                                    </g>
                                                </g>
                                            </g>
                                        </g>
                                    </g>
                                </g>
                            </g>
                        </g>
                    </g>
                </g>
            </g>
        </g>
    </g>
</svg>