<?xml version="1.0" encoding="UTF-8"?>
<svg width="16px" height="15px" viewBox="0 0 16 15" version="1.1" xmlns="http://www.w3.org/2000/svg" xmlns:xlink="http://www.w3.org/1999/xlink">
    <!-- Generator: Sketch 49.3 (51167) - http://www.bohemiancoding.com/sketch -->
    <title>noun_70919_cc</title>
    <desc>Created with Sketch.</desc>
    <defs></defs>
    <g id="Page-1" stroke="none" stroke-width="1" fill="none" fill-rule="evenodd">
        <g id="Assets_grid_view-3" transform="translate(-400.000000, -200.000000)" fill="#fff" fill-rule="nonzero">
            <g id="Group-41" transform="translate(264.000000, 190.000000)">
                <g id="noun_70919_cc" transform="translate(136.000000, 10.000000)">
                    <path d="M0.680851064,1.33098704 L15.3191489,1.33098704 C15.6949787,1.33098704 16,1.03284594 16,0.665493521 C16,0.298141097 15.6949787,0 15.3191489,0 L0.680851064,0 C0.305021277,0 0,0.298141097 0,0.665493521 C0,1.03284594 0.305021277,1.33098704 0.680851064,1.33098704 Z" id="Shape"></path>
                    <path d="M0.680851064,7.98592225 L15.3191489,7.98592225 C15.6949787,7.98592225 16,7.68778116 16,7.32042873 C16,6.95307631 15.6949787,6.65493521 15.3191489,6.65493521 L0.680851064,6.65493521 C0.305021277,6.65493521 0,6.95307631 0,7.32042873 C0,7.68778116 0.305021277,7.98592225 0.680851064,7.98592225 Z" id="Shape"></path>
                    <path d="M0.680851064,14.6408575 L15.3191489,14.6408575 C15.6949787,14.6408575 16,14.3427164 16,13.9753639 C16,13.6080115 15.6949787,13.3098704 15.3191489,13.3098704 L0.680851064,13.3098704 C0.305021277,13.3098704 0,13.6080115 0,13.9753639 C0,14.3427164 0.305021277,14.6408575 0.680851064,14.6408575 Z" id="Shape"></path>
                </g>
            </g>
        </g>
    </g>
</svg>