<svg xmlns="http://www.w3.org/2000/svg" width="16" height="16" viewBox="0 0 16 16">
    <path fill="#2C4471" fill-rule="nonzero" d="M15.892.043a.25.25 0 0 0-.23-.026l-5.078 1.935L5.505.016C5.492.012 5.481.01 5.47.008L5.446.002h-.06c-.008 0-.016.004-.024.006-.012.002-.023.004-.034.008h-.001L.159 1.986a.246.246 0 0 0-.159.23v13.538A.245.245 0 0 0 .249 16c.03 0 .06-.006.088-.017l5.08-1.935 5.078 1.935c.002.001.004 0 .007.002.027.01.054.015.082.015a.25.25 0 0 0 .082-.015c.002 0 .004 0 .007-.002l5.167-1.969a.246.246 0 0 0 .16-.23V.247a.246.246 0 0 0-.108-.203zM5.665.605l4.67 1.78v13.01l-4.67-1.78V.606z"/>
</svg>
