<?xml version="1.0" encoding="UTF-8"?>
<svg width="13px" height="16px" viewBox="0 0 13 16" version="1.1" xmlns="http://www.w3.org/2000/svg" xmlns:xlink="http://www.w3.org/1999/xlink">
    <!-- Generator: Sketch 48.2 (47327) - http://www.bohemiancoding.com/sketch -->
    <title>noun_303388_cc</title>
    <desc>Created with Sketch.</desc>
    <defs></defs>
    <g id="search-engine1" stroke="none" stroke-width="1" fill="none" fill-rule="evenodd" transform="translate(-662.000000, -160.000000)">
        <g id="noun_303388_cc" transform="translate(662.000000, 160.000000)" fill="#000000" fill-rule="nonzero">
            <path d="M11.0988544,4.17912243 C10.9443366,4.01455595 10.6942616,4.01455595 10.5397438,4.17912243 C10.3852259,4.34344832 10.3852259,4.61026736 10.5397438,4.77459325 C12.7662466,7.14613094 12.7662466,11.0047818 10.5397438,13.3760789 C8.31278917,15.7471354 4.68997815,15.7471354 2.46347535,13.3760789 C1.38478715,12.2274819 0.790887409,10.6999489 0.790887409,9.07521578 C0.790887409,7.45072329 1.38478715,5.92319028 2.46347535,4.77459325 C3.79223848,3.35941776 5.66881709,2.74494 7.49230843,3.08706505 L5.71286823,4.9822261 C5.55835038,5.14655198 5.55835038,5.41337103 5.71286823,5.57769691 C5.79012716,5.65998015 5.89133183,5.70112177 5.9923106,5.70112177 C6.09328937,5.70112177 6.19471995,5.65998015 6.27175297,5.57769691 L8.55292436,3.14841659 C8.55224665,3.14769481 8.55202075,3.14745421 8.55134304,3.14673243 C8.59607189,3.09933536 8.63199051,3.04135214 8.6516441,2.97254218 C8.69524343,2.81880244 8.65119229,2.66049141 8.55156894,2.55438934 C8.55202075,2.55390815 8.55247255,2.55342696 8.55269846,2.55318637 L6.27175297,0.123424859 C6.11723512,-0.0411416198 5.86716018,-0.0411416198 5.71264233,0.123424859 C5.55812448,0.287750744 5.55812448,0.554569787 5.71264233,0.718895672 L7.08251986,2.17785931 C5.18448044,1.99597005 3.2848597,2.70933205 1.90436471,4.17936303 C0.676354442,5.48723347 0,7.22600824 0,9.07545638 C0,10.9251451 0.676354442,12.6639199 1.90436471,13.9717903 C3.13237498,15.2796608 4.76497804,16 6.50172251,16 C8.23824108,16 9.87107004,15.2796608 11.0988544,13.9717903 C13.6337152,11.2718414 13.6337152,6.87883071 11.0988544,4.17912243 Z" id="Shape"></path>
        </g>
    </g>
</svg>