<?xml version="1.0" encoding="UTF-8"?>
<svg width="20px" height="20px" viewBox="0 0 20 20" version="1.1" xmlns="http://www.w3.org/2000/svg" xmlns:xlink="http://www.w3.org/1999/xlink">
    <!-- Generator: Sketch 49.1 (51147) - http://www.bohemiancoding.com/sketch -->
    <title>Group 39</title>
    <desc>Created with Sketch.</desc>
    <defs></defs>
    <g id="user" stroke="none" stroke-width="1" fill="none" fill-rule="evenodd">
        <g id="user3" transform="translate(-1331.000000, -377.000000)">
            <g id="Group-39" transform="translate(1332.000000, 378.000000)">
                <g>
                    <circle id="Oval" stroke="#1ED26A" fill="#1ED26A" cx="9" cy="9" r="9"></circle>
                    <path d="M4.16261418,8.83204056 C3.93763626,9.08534296 3.95013504,9.59194775 4.17511295,9.8385843 L6.91859362,12.8048887 C7.14982092,13.0581911 7.61227553,13.0648569 7.84975221,12.8248863 L8.28720927,12.3782741 L9.23086663,11.4117255 L13.8179163,6.7456287 C14.055393,6.50565801 14.0616424,6.01238492 13.8304151,5.76574838 L13.2992172,5.1858192 C13.0679899,4.93918266 12.6055353,4.93918266 12.374308,5.17915335 L7.88724853,9.95856964 C7.65602123,10.2052062 7.19356663,10.1985403 6.96858872,9.95190379 L5.47498534,8.34543332 C5.25000743,8.09213092 4.8000516,8.09879678 4.57507369,8.35876503 L4.16261418,8.83204056 L4.16261418,8.83204056 Z" id="Shape" fill="#FFFFFF"></path>
                </g>
            </g>
        </g>
    </g>
</svg>